<svg width="1200" height="1200" xmlns="http://www.w3.org/2000/svg" xmlns:xlink="http://www.w3.org/1999/xlink" version="1.1"><g transform="scale(33.75) translate(1.777777777777776, 1.7777777777777777)">            <linearGradient id="SvgjsLinearGradient1011"><stop id="SvgjsStop1012" stop-color="#2d388a" offset="0"/><stop id="SvgjsStop1013" stop-color="#00aeef" offset="1"/></linearGradient>            <g fill="url(#SvgjsLinearGradient1011)"><linearGradient id="SvgjsLinearGradient1011"><stop id="SvgjsStop1012" stop-color="#2d388a" offset="0"/><stop id="SvgjsStop1013" stop-color="#00aeef" offset="1"/></linearGradient><g xmlns="http://www.w3.org/2000/svg" display="none"><rect x="-69.333" y="-186.661" display="inline" fill="url(#SvgjsLinearGradient1011)" width="473.333" height="236"/></g><g xmlns="http://www.w3.org/2000/svg" display="none"><g display="inline"><g><polygon points="29.17,9.123 2.83,18.247 2.83,0    "/></g><g><polygon fill="url(#SvgjsLinearGradient1011)" points="2.83,22.877 29.17,13.753 29.17,32    "/></g></g></g><g xmlns="http://www.w3.org/2000/svg"><g><polygon points="2.83,18.247 29.17,9.123 2.83,0   "/><polygon points="29.17,32 29.17,13.753 2.83,22.877   "/></g></g><g xmlns="http://www.w3.org/2000/svg" display="none"><g display="inline"><path fill="url(#SvgjsLinearGradient1011)" d="M3.83,1.405l22.285,7.719L3.83,16.842V1.405 M2.83,0v18.247L29.17,9.123L2.83,0L2.83,0z"/></g><g display="inline"><path fill="url(#SvgjsLinearGradient1011)" d="M28.17,15.158v15.437L5.885,22.877L28.17,15.158 M29.17,13.753L2.83,22.877L29.17,32V13.753L29.17,13.753z    "/></g></g><g xmlns="http://www.w3.org/2000/svg" display="none"><g display="inline"><polygon fill="url(#SvgjsLinearGradient1011)" points="3.33,0.702 27.643,9.123 3.33,17.544   "/><path fill="url(#SvgjsLinearGradient1011)" d="M3.83,1.405l22.285,7.719L3.83,16.842V1.405 M2.83,0v18.247L29.17,9.123L2.83,0L2.83,0z"/></g><g display="inline"><polygon fill="url(#SvgjsLinearGradient1011)" points="4.357,22.876 28.67,14.455 28.67,31.298   "/><path fill="url(#SvgjsLinearGradient1011)" d="M28.17,15.158v15.437L5.885,22.877L28.17,15.158 M29.17,13.753L2.83,22.877L29.17,32V13.753L29.17,13.753z    "/></g></g></g>        </g></svg>
